<svg xmlns="http://www.w3.org/2000/svg" width="390" height="844" viewBox="0 0 390 844" role="img" aria-labelledby="t d"><title id="t">Symptom Story daily check-in</title><desc id="d">The first of six focused daily check-in steps asking about mood.</desc><rect width="390" height="844" rx="42" fill="#25342e"/><rect x="9" y="9" width="372" height="826" rx="35" fill="#f8f6f0"/><rect x="153" y="18" width="84" height="22" rx="11" fill="#25342e"/><text x="24" y="84" fill="#487263" font-family="Arial" font-size="11" font-weight="700" letter-spacing="1.5">CHECK-IN · 1 OF 6</text><text x="24" y="125" fill="#25342e" font-family="Arial" font-size="31" font-weight="700">Mood</text><rect x="24" y="148" width="342" height="6" rx="3" fill="#dfe5e0"/><rect x="24" y="148" width="57" height="6" rx="3" fill="#487263"/><rect x="24" y="185" width="342" height="310" rx="23" fill="#fff" stroke="#dfe5e0"/><text x="45" y="232" fill="#25342e" font-family="Arial" font-size="21" font-weight="700">How does today feel?</text><g font-family="Arial" font-size="16" font-weight="700" text-anchor="middle"><rect x="42" y="278" width="52" height="52" rx="17" fill="#fff" stroke="#dfe5e0"/><text x="68" y="310" fill="#25342e">1</text><rect x="106" y="278" width="52" height="52" rx="17" fill="#fff" stroke="#dfe5e0"/><text x="132" y="310" fill="#25342e">2</text><rect x="170" y="278" width="52" height="52" rx="17" fill="#487263"/><text x="196" y="310" fill="#fff">3</text><rect x="234" y="278" width="52" height="52" rx="17" fill="#fff" stroke="#dfe5e0"/><text x="260" y="310" fill="#25342e">4</text><rect x="298" y="278" width="52" height="52" rx="17" fill="#fff" stroke="#dfe5e0"/><text x="324" y="310" fill="#25342e">5</text></g><text x="47" y="365" fill="#68766f" font-family="Arial" font-size="11">1 · Very difficult</text><text x="258" y="365" fill="#68766f" font-family="Arial" font-size="11">5 · Very good</text><text x="45" y="429" fill="#68766f" font-family="Arial" font-size="13"><tspan x="45">Choose what feels closest.</tspan><tspan x="45" dy="22">There is no wrong answer.</tspan></text><rect x="24" y="537" width="342" height="55" rx="17" fill="#487263"/><text x="195" y="571" fill="#fff" font-family="Arial" font-size="15" font-weight="700" text-anchor="middle">Continue  →</text><text x="195" y="635" fill="#487263" font-family="Arial" font-size="14" font-weight="700" text-anchor="middle">Skip this question</text><rect x="9" y="752" width="372" height="83" fill="#fff"/><path d="M9 752h372" stroke="#dfe5e0"/><g fill="#68766f" font-family="Arial" font-size="9" text-anchor="middle"><text x="50" y="792">⌂</text><text x="50" y="813">Home</text><text x="123" y="792" fill="#487263">♥</text><text x="123" y="813" fill="#487263" font-weight="700">Check-In</text><text x="195" y="792">▥</text><text x="195" y="813">Trends</text><text x="268" y="792">□</text><text x="268" y="813">Journal</text><text x="341" y="792">○</text><text x="341" y="813">Profile</text></g></svg>
