<svg xmlns="http://www.w3.org/2000/svg" width="390" height="844" viewBox="0 0 390 844" role="img" aria-labelledby="t d"><title id="t">Symptom Story home screen</title><desc id="d">A calm home dashboard with an affirmation, check-in action, and medication summary.</desc><rect width="390" height="844" rx="42" fill="#25342e"/><rect x="9" y="9" width="372" height="826" rx="35" fill="#f8f6f0"/><rect x="153" y="18" width="84" height="22" rx="11" fill="#25342e"/><text x="26" y="79" fill="#487263" font-family="Arial" font-size="11" font-weight="700" letter-spacing="1.5">TODAY</text><text x="26" y="111" fill="#25342e" font-family="Arial" font-size="27" font-weight="700">Good morning, Alex</text><rect x="24" y="137" width="342" height="165" rx="24" fill="#dcebe3"/><circle cx="54" cy="169" r="18" fill="#fff" fill-opacity=".65"/><text x="47" y="176" fill="#487263" font-size="18">✦</text><text x="45" y="215" fill="#25342e" font-family="Arial" font-size="17" font-weight="600"><tspan x="45">You deserve the same compassion</tspan><tspan x="45" dy="25">you offer everyone else.</tspan></text><text x="45" y="280" fill="#487263" font-family="Arial" font-size="12" font-weight="700">♡  Save       ↗  Share</text><rect x="24" y="318" width="342" height="83" rx="20" fill="#487263"/><rect x="40" y="336" width="47" height="47" rx="15" fill="#fff" fill-opacity=".16"/><text x="53" y="368" fill="#fff" font-size="25">♥</text><text x="102" y="351" fill="#fff" font-family="Arial" font-size="16" font-weight="700">How are you feeling?</text><text x="102" y="375" fill="#dcebe3" font-family="Arial" font-size="12">A gentle check-in · about 2 minutes</text><circle cx="336" cy="359" r="19" fill="#fff"/><text x="329" y="366" fill="#487263" font-size="20">→</text><text x="24" y="444" fill="#25342e" font-family="Arial" font-size="18" font-weight="700">Today at a glance</text><rect x="24" y="463" width="164" height="126" rx="19" fill="#fff" stroke="#dfe5e0"/><rect x="202" y="463" width="164" height="126" rx="19" fill="#fff" stroke="#dfe5e0"/><rect x="40" y="480" width="38" height="38" rx="12" fill="#eee8f5"/><text x="48" y="506" font-size="18">▣</text><text x="40" y="548" fill="#25342e" font-family="Arial" font-size="18" font-weight="700">Day 24</text><text x="40" y="572" fill="#68766f" font-family="Arial" font-size="12">Cycle day</text><rect x="218" y="480" width="38" height="38" rx="12" fill="#f5e5da"/><text x="226" y="506" font-size="18">✚</text><text x="218" y="548" fill="#25342e" font-family="Arial" font-size="18" font-weight="700">8:00 PM</text><text x="218" y="572" fill="#68766f" font-family="Arial" font-size="12">Medication</text><rect x="24" y="607" width="342" height="88" rx="19" fill="#fff" stroke="#dfe5e0"/><rect x="40" y="623" width="52" height="56" rx="13" fill="#f5e5da"/><text x="54" y="642" fill="#9a684c" font-family="Arial" font-size="9" font-weight="700">AUG</text><text x="54" y="667" fill="#25342e" font-family="Arial" font-size="19" font-weight="700">04</text><text x="108" y="638" fill="#487263" font-family="Arial" font-size="9" font-weight="700">UPCOMING APPOINTMENT</text><text x="108" y="662" fill="#25342e" font-family="Arial" font-size="15" font-weight="700">Care appointment</text><text x="108" y="683" fill="#68766f" font-family="Arial" font-size="11">Tuesday · 10:30 AM</text><rect x="9" y="752" width="372" height="83" fill="#fff"/><path d="M9 752h372" stroke="#dfe5e0"/><g fill="#68766f" font-family="Arial" font-size="9" text-anchor="middle"><text x="50" y="792">⌂</text><text x="50" y="813" fill="#487263" font-weight="700">Home</text><text x="123" y="792">♥</text><text x="123" y="813">Check-In</text><text x="195" y="792">▥</text><text x="195" y="813">Trends</text><text x="268" y="792">□</text><text x="268" y="813">Journal</text><text x="341" y="792">○</text><text x="341" y="813">Profile</text></g></svg>
