<svg xmlns="http://www.w3.org/2000/svg" width="390" height="844" viewBox="0 0 390 844" role="img" aria-labelledby="t d"><title id="t">Symptom Story trends screen</title><desc id="d">A mood chart paired with a plain-language summary based on self-reported check-ins.</desc><rect width="390" height="844" rx="42" fill="#25342e"/><rect x="9" y="9" width="372" height="826" rx="35" fill="#f8f6f0"/><rect x="153" y="18" width="84" height="22" rx="11" fill="#25342e"/><text x="24" y="84" fill="#487263" font-family="Arial" font-size="11" font-weight="700" letter-spacing="1.5">YOUR RECORDS</text><text x="24" y="125" fill="#25342e" font-family="Arial" font-size="31" font-weight="700">Trends</text><rect x="24" y="158" width="342" height="280" rx="22" fill="#fff" stroke="#dfe5e0"/><text x="44" y="194" fill="#487263" font-family="Arial" font-size="10" font-weight="700" letter-spacing="1">MOOD · LAST 7 CHECK-INS</text><text x="44" y="229" fill="#25342e" font-family="Arial" font-size="20" font-weight="700">Average: 3.4 of 5</text><text x="44" y="255" fill="#68766f" font-family="Arial" font-size="12">Based on your self-reported entries.</text><g fill="#83aa99"><rect x="48" y="337" width="25" height="55" rx="7"/><rect x="89" y="309" width="25" height="83" rx="7"/><rect x="130" y="326" width="25" height="66" rx="7"/><rect x="171" y="279" width="25" height="113" rx="7"/><rect x="212" y="298" width="25" height="94" rx="7"/><rect x="253" y="267" width="25" height="125" rx="7"/><rect x="294" y="290" width="25" height="102" rx="7"/></g><g fill="#68766f" font-family="Arial" font-size="10" text-anchor="middle"><text x="60" y="414">M</text><text x="101" y="414">T</text><text x="142" y="414">W</text><text x="183" y="414">T</text><text x="224" y="414">F</text><text x="265" y="414">S</text><text x="306" y="414">S</text></g><rect x="24" y="458" width="342" height="160" rx="22" fill="#edf4ef" stroke="#dfe5e0"/><text x="44" y="495" fill="#487263" font-family="Arial" font-size="10" font-weight="700" letter-spacing="1">PLAIN-LANGUAGE SUMMARY</text><text x="44" y="531" fill="#25342e" font-family="Arial" font-size="16" font-weight="700"><tspan x="44">You recorded a mood of 4 or 5</tspan><tspan x="44" dy="24">on three of seven check-ins.</tspan></text><text x="44" y="591" fill="#68766f" font-family="Arial" font-size="11">A record summary, not medical interpretation.</text><rect x="24" y="640" width="342" height="77" rx="19" fill="#fff" stroke="#dfe5e0"/><text x="44" y="673" fill="#25342e" font-family="Arial" font-size="15" font-weight="700">July 28 · Mood 4/5</text><text x="44" y="697" fill="#68766f" font-family="Arial" font-size="11">Fatigue, headache</text><rect x="9" y="752" width="372" height="83" fill="#fff"/><path d="M9 752h372" stroke="#dfe5e0"/><g fill="#68766f" font-family="Arial" font-size="9" text-anchor="middle"><text x="50" y="792">⌂</text><text x="50" y="813">Home</text><text x="123" y="792">♥</text><text x="123" y="813">Check-In</text><text x="195" y="792" fill="#487263">▥</text><text x="195" y="813" fill="#487263" font-weight="700">Trends</text><text x="268" y="792">□</text><text x="268" y="813">Journal</text><text x="341" y="792">○</text><text x="341" y="813">Profile</text></g></svg>
